<mxfile host="app.diagrams.net" modified="2021-04-10T09:49:39.849Z" agent="5.0 (X11)" etag="6kmrTgMRg6Z92JXPYFYq" version="14.5.10" type="github">
  <diagram id="Oy-5mNEPC7trALZ5wTI-" name="Page-1">
    <mxGraphModel dx="1369" dy="776" grid="0" gridSize="10" guides="1" tooltips="1" connect="1" arrows="1" fold="1" page="1" pageScale="1" pageWidth="1100" pageHeight="1700" background="#ffffff" math="0" shadow="0">
      <root>
        <mxCell id="0" />
        <mxCell id="1" parent="0" />
        <mxCell id="0B3nSC4ZD-feULJMQGPc-10" value="GIÁO VIÊN" style="swimlane;fontStyle=0;childLayout=stackLayout;horizontal=1;startSize=26;horizontalStack=0;resizeParent=1;resizeParentMax=0;resizeLast=0;collapsible=1;marginBottom=0;align=center;fontSize=14;" vertex="1" parent="1">
          <mxGeometry x="132" y="416" width="160" height="296" as="geometry" />
        </mxCell>
        <mxCell id="0B3nSC4ZD-feULJMQGPc-11" value="Mã giáo viên" style="text;strokeColor=none;fillColor=none;spacingLeft=4;spacingRight=4;overflow=hidden;rotatable=0;points=[[0,0.5],[1,0.5]];portConstraint=eastwest;fontSize=12;fontStyle=5" vertex="1" parent="0B3nSC4ZD-feULJMQGPc-10">
          <mxGeometry y="26" width="160" height="30" as="geometry" />
        </mxCell>
        <mxCell id="0B3nSC4ZD-feULJMQGPc-12" value="Tên giáo viên" style="text;strokeColor=none;fillColor=none;spacingLeft=4;spacingRight=4;overflow=hidden;rotatable=0;points=[[0,0.5],[1,0.5]];portConstraint=eastwest;fontSize=12;" vertex="1" parent="0B3nSC4ZD-feULJMQGPc-10">
          <mxGeometry y="56" width="160" height="30" as="geometry" />
        </mxCell>
        <mxCell id="0B3nSC4ZD-feULJMQGPc-13" value="Ngày sinh" style="text;strokeColor=none;fillColor=none;spacingLeft=4;spacingRight=4;overflow=hidden;rotatable=0;points=[[0,0.5],[1,0.5]];portConstraint=eastwest;fontSize=12;" vertex="1" parent="0B3nSC4ZD-feULJMQGPc-10">
          <mxGeometry y="86" width="160" height="30" as="geometry" />
        </mxCell>
        <mxCell id="0B3nSC4ZD-feULJMQGPc-14" value="Giới tính" style="text;strokeColor=none;fillColor=none;spacingLeft=4;spacingRight=4;overflow=hidden;rotatable=0;points=[[0,0.5],[1,0.5]];portConstraint=eastwest;fontSize=12;" vertex="1" parent="0B3nSC4ZD-feULJMQGPc-10">
          <mxGeometry y="116" width="160" height="30" as="geometry" />
        </mxCell>
        <mxCell id="0B3nSC4ZD-feULJMQGPc-15" value="Đia chỉ" style="text;strokeColor=none;fillColor=none;spacingLeft=4;spacingRight=4;overflow=hidden;rotatable=0;points=[[0,0.5],[1,0.5]];portConstraint=eastwest;fontSize=12;" vertex="1" parent="0B3nSC4ZD-feULJMQGPc-10">
          <mxGeometry y="146" width="160" height="30" as="geometry" />
        </mxCell>
        <mxCell id="0B3nSC4ZD-feULJMQGPc-16" value="Điện thoại" style="text;strokeColor=none;fillColor=none;spacingLeft=4;spacingRight=4;overflow=hidden;rotatable=0;points=[[0,0.5],[1,0.5]];portConstraint=eastwest;fontSize=12;" vertex="1" parent="0B3nSC4ZD-feULJMQGPc-10">
          <mxGeometry y="176" width="160" height="30" as="geometry" />
        </mxCell>
        <mxCell id="0B3nSC4ZD-feULJMQGPc-17" value="Bằng cấp" style="text;strokeColor=none;fillColor=none;spacingLeft=4;spacingRight=4;overflow=hidden;rotatable=0;points=[[0,0.5],[1,0.5]];portConstraint=eastwest;fontSize=12;" vertex="1" parent="0B3nSC4ZD-feULJMQGPc-10">
          <mxGeometry y="206" width="160" height="30" as="geometry" />
        </mxCell>
        <mxCell id="0B3nSC4ZD-feULJMQGPc-18" value="Trình độ" style="text;strokeColor=none;fillColor=none;spacingLeft=4;spacingRight=4;overflow=hidden;rotatable=0;points=[[0,0.5],[1,0.5]];portConstraint=eastwest;fontSize=12;" vertex="1" parent="0B3nSC4ZD-feULJMQGPc-10">
          <mxGeometry y="236" width="160" height="30" as="geometry" />
        </mxCell>
        <mxCell id="0B3nSC4ZD-feULJMQGPc-19" value="Trường tốt nghiệp" style="text;strokeColor=none;fillColor=none;spacingLeft=4;spacingRight=4;overflow=hidden;rotatable=0;points=[[0,0.5],[1,0.5]];portConstraint=eastwest;fontSize=12;" vertex="1" parent="0B3nSC4ZD-feULJMQGPc-10">
          <mxGeometry y="266" width="160" height="30" as="geometry" />
        </mxCell>
        <mxCell id="0B3nSC4ZD-feULJMQGPc-20" value="LỚP HỌC" style="swimlane;fontStyle=0;childLayout=stackLayout;horizontal=1;startSize=26;horizontalStack=0;resizeParent=1;resizeParentMax=0;resizeLast=0;collapsible=1;marginBottom=0;align=center;fontSize=14;" vertex="1" parent="1">
          <mxGeometry x="547" y="495" width="160" height="116" as="geometry" />
        </mxCell>
        <mxCell id="0B3nSC4ZD-feULJMQGPc-21" value="Mã lớp học" style="text;strokeColor=none;fillColor=none;spacingLeft=4;spacingRight=4;overflow=hidden;rotatable=0;points=[[0,0.5],[1,0.5]];portConstraint=eastwest;fontSize=12;fontStyle=5" vertex="1" parent="0B3nSC4ZD-feULJMQGPc-20">
          <mxGeometry y="26" width="160" height="30" as="geometry" />
        </mxCell>
        <mxCell id="0B3nSC4ZD-feULJMQGPc-22" value="Tên lớp học" style="text;strokeColor=none;fillColor=none;spacingLeft=4;spacingRight=4;overflow=hidden;rotatable=0;points=[[0,0.5],[1,0.5]];portConstraint=eastwest;fontSize=12;" vertex="1" parent="0B3nSC4ZD-feULJMQGPc-20">
          <mxGeometry y="56" width="160" height="30" as="geometry" />
        </mxCell>
        <mxCell id="0B3nSC4ZD-feULJMQGPc-23" value="Mã GV Chủ nhiệm" style="text;strokeColor=none;fillColor=none;spacingLeft=4;spacingRight=4;overflow=hidden;rotatable=0;points=[[0,0.5],[1,0.5]];portConstraint=eastwest;fontSize=12;fontStyle=6" vertex="1" parent="0B3nSC4ZD-feULJMQGPc-20">
          <mxGeometry y="86" width="160" height="30" as="geometry" />
        </mxCell>
        <mxCell id="0B3nSC4ZD-feULJMQGPc-27" value="Chủ nhiệm" style="shape=rhombus;perimeter=rhombusPerimeter;whiteSpace=wrap;html=1;align=center;" vertex="1" parent="1">
          <mxGeometry x="364" y="517" width="120" height="60" as="geometry" />
        </mxCell>
        <mxCell id="0B3nSC4ZD-feULJMQGPc-29" value="" style="fontSize=12;html=1;endArrow=ERmandOne;exitX=0;exitY=0.5;exitDx=0;exitDy=0;rounded=0;entryX=1;entryY=0.5;entryDx=0;entryDy=0;" edge="1" parent="1" source="0B3nSC4ZD-feULJMQGPc-27" target="0B3nSC4ZD-feULJMQGPc-14">
          <mxGeometry width="100" height="100" relative="1" as="geometry">
            <mxPoint x="349" y="564" as="sourcePoint" />
            <mxPoint x="847.7600000000002" y="723.47" as="targetPoint" />
          </mxGeometry>
        </mxCell>
        <mxCell id="0B3nSC4ZD-feULJMQGPc-30" value="" style="fontSize=12;html=1;endArrow=ERmandOne;entryX=0.006;entryY=0.833;entryDx=0;entryDy=0;exitX=1;exitY=0.5;exitDx=0;exitDy=0;rounded=0;entryPerimeter=0;" edge="1" parent="1" source="0B3nSC4ZD-feULJMQGPc-27" target="0B3nSC4ZD-feULJMQGPc-21">
          <mxGeometry width="100" height="100" relative="1" as="geometry">
            <mxPoint x="359" y="574" as="sourcePoint" />
            <mxPoint x="654" y="450" as="targetPoint" />
          </mxGeometry>
        </mxCell>
      </root>
    </mxGraphModel>
  </diagram>
</mxfile>
